<mxfile host="65bd71144e">
    <diagram id="EdBB5asQipxEUO2YfHF1" name="ページ1">
        <mxGraphModel dx="1129" dy="807" grid="1" gridSize="10" guides="1" tooltips="1" connect="1" arrows="1" fold="1" page="1" pageScale="1" pageWidth="827" pageHeight="1169" math="0" shadow="0">
            <root>
                <mxCell id="0"/>
                <mxCell id="1" parent="0"/>
                <mxCell id="22" value="Member" style="swimlane;fontStyle=0;childLayout=stackLayout;horizontal=1;startSize=26;horizontalStack=0;resizeParent=1;resizeParentMax=0;resizeLast=0;collapsible=1;marginBottom=0;align=center;fontSize=14;" vertex="1" parent="1">
                    <mxGeometry x="70" y="250" width="160" height="176" as="geometry"/>
                </mxCell>
                <mxCell id="23" value="firstname: textfield" style="text;strokeColor=none;fillColor=none;spacingLeft=4;spacingRight=4;overflow=hidden;rotatable=0;points=[[0,0.5],[1,0.5]];portConstraint=eastwest;fontSize=12;" vertex="1" parent="22">
                    <mxGeometry y="26" width="160" height="30" as="geometry"/>
                </mxCell>
                <mxCell id="24" value="lastname: textfield" style="text;strokeColor=none;fillColor=none;spacingLeft=4;spacingRight=4;overflow=hidden;rotatable=0;points=[[0,0.5],[1,0.5]];portConstraint=eastwest;fontSize=12;" vertex="1" parent="22">
                    <mxGeometry y="56" width="160" height="30" as="geometry"/>
                </mxCell>
                <mxCell id="55" value="role: textfield" style="text;strokeColor=none;fillColor=none;spacingLeft=4;spacingRight=4;overflow=hidden;rotatable=0;points=[[0,0.5],[1,0.5]];portConstraint=eastwest;fontSize=12;" vertex="1" parent="22">
                    <mxGeometry y="86" width="160" height="30" as="geometry"/>
                </mxCell>
                <mxCell id="25" value="profile: textarea" style="text;strokeColor=none;fillColor=none;spacingLeft=4;spacingRight=4;overflow=hidden;rotatable=0;points=[[0,0.5],[1,0.5]];portConstraint=eastwest;fontSize=12;" vertex="1" parent="22">
                    <mxGeometry y="116" width="160" height="30" as="geometry"/>
                </mxCell>
                <mxCell id="26" value="image: image" style="text;strokeColor=none;fillColor=none;spacingLeft=4;spacingRight=4;overflow=hidden;rotatable=0;points=[[0,0.5],[1,0.5]];portConstraint=eastwest;fontSize=12;" vertex="1" parent="22">
                    <mxGeometry y="146" width="160" height="30" as="geometry"/>
                </mxCell>
                <mxCell id="27" value="About" style="swimlane;fontStyle=0;childLayout=stackLayout;horizontal=1;startSize=26;horizontalStack=0;resizeParent=1;resizeParentMax=0;resizeLast=0;collapsible=1;marginBottom=0;align=center;fontSize=14;" vertex="1" parent="1">
                    <mxGeometry x="70" y="440" width="160" height="56" as="geometry"/>
                </mxCell>
                <mxCell id="28" value="catch_copy: textfield" style="text;strokeColor=none;fillColor=none;spacingLeft=4;spacingRight=4;overflow=hidden;rotatable=0;points=[[0,0.5],[1,0.5]];portConstraint=eastwest;fontSize=12;" vertex="1" parent="27">
                    <mxGeometry y="26" width="160" height="30" as="geometry"/>
                </mxCell>
                <mxCell id="31" value="microCMS Commonfields" style="swimlane;fontStyle=0;childLayout=stackLayout;horizontal=1;startSize=26;horizontalStack=0;resizeParent=1;resizeParentMax=0;resizeLast=0;collapsible=1;marginBottom=0;align=center;fontSize=14;" vertex="1" parent="1">
                    <mxGeometry x="70" y="50" width="220" height="176" as="geometry"/>
                </mxCell>
                <mxCell id="32" value="id" style="text;strokeColor=none;fillColor=none;spacingLeft=4;spacingRight=4;overflow=hidden;rotatable=0;points=[[0,0.5],[1,0.5]];portConstraint=eastwest;fontSize=12;" vertex="1" parent="31">
                    <mxGeometry y="26" width="220" height="30" as="geometry"/>
                </mxCell>
                <mxCell id="33" value="createdAt" style="text;strokeColor=none;fillColor=none;spacingLeft=4;spacingRight=4;overflow=hidden;rotatable=0;points=[[0,0.5],[1,0.5]];portConstraint=eastwest;fontSize=12;" vertex="1" parent="31">
                    <mxGeometry y="56" width="220" height="30" as="geometry"/>
                </mxCell>
                <mxCell id="34" value="updatedAt" style="text;strokeColor=none;fillColor=none;spacingLeft=4;spacingRight=4;overflow=hidden;rotatable=0;points=[[0,0.5],[1,0.5]];portConstraint=eastwest;fontSize=12;" vertex="1" parent="31">
                    <mxGeometry y="86" width="220" height="30" as="geometry"/>
                </mxCell>
                <mxCell id="35" value="publishedAt" style="text;strokeColor=none;fillColor=none;spacingLeft=4;spacingRight=4;overflow=hidden;rotatable=0;points=[[0,0.5],[1,0.5]];portConstraint=eastwest;fontSize=12;" vertex="1" parent="31">
                    <mxGeometry y="116" width="220" height="30" as="geometry"/>
                </mxCell>
                <mxCell id="36" value="revisedAt" style="text;strokeColor=none;fillColor=none;spacingLeft=4;spacingRight=4;overflow=hidden;rotatable=0;points=[[0,0.5],[1,0.5]];portConstraint=eastwest;fontSize=12;" vertex="1" parent="31">
                    <mxGeometry y="146" width="220" height="30" as="geometry"/>
                </mxCell>
                <mxCell id="37" value="News" style="swimlane;fontStyle=0;childLayout=stackLayout;horizontal=1;startSize=26;horizontalStack=0;resizeParent=1;resizeParentMax=0;resizeLast=0;collapsible=1;marginBottom=0;align=center;fontSize=14;" vertex="1" parent="1">
                    <mxGeometry x="470" y="440" width="160" height="116" as="geometry"/>
                </mxCell>
                <mxCell id="38" value="title: textfield" style="text;strokeColor=none;fillColor=none;spacingLeft=4;spacingRight=4;overflow=hidden;rotatable=0;points=[[0,0.5],[1,0.5]];portConstraint=eastwest;fontSize=12;" vertex="1" parent="37">
                    <mxGeometry y="26" width="160" height="30" as="geometry"/>
                </mxCell>
                <mxCell id="39" value="summary: textarea" style="text;strokeColor=none;fillColor=none;spacingLeft=4;spacingRight=4;overflow=hidden;rotatable=0;points=[[0,0.5],[1,0.5]];portConstraint=eastwest;fontSize=12;" vertex="1" parent="37">
                    <mxGeometry y="56" width="160" height="30" as="geometry"/>
                </mxCell>
                <mxCell id="40" value="details: recheditor" style="text;strokeColor=#6F0000;fillColor=#a20025;spacingLeft=4;spacingRight=4;overflow=hidden;rotatable=0;points=[[0,0.5],[1,0.5]];portConstraint=eastwest;fontSize=12;fontColor=#ffffff;" vertex="1" parent="37">
                    <mxGeometry y="86" width="160" height="30" as="geometry"/>
                </mxCell>
                <mxCell id="41" value="CaseStudy" style="swimlane;fontStyle=0;childLayout=stackLayout;horizontal=1;startSize=26;horizontalStack=0;resizeParent=1;resizeParentMax=0;resizeLast=0;collapsible=1;marginBottom=0;align=center;fontSize=14;" vertex="1" parent="1">
                    <mxGeometry x="70" y="585" width="160" height="116" as="geometry"/>
                </mxCell>
                <mxCell id="42" value="title: textfield" style="text;strokeColor=none;fillColor=none;spacingLeft=4;spacingRight=4;overflow=hidden;rotatable=0;points=[[0,0.5],[1,0.5]];portConstraint=eastwest;fontSize=12;" vertex="1" parent="41">
                    <mxGeometry y="26" width="160" height="30" as="geometry"/>
                </mxCell>
                <mxCell id="43" value="summary: textarea" style="text;strokeColor=none;fillColor=none;spacingLeft=4;spacingRight=4;overflow=hidden;rotatable=0;points=[[0,0.5],[1,0.5]];portConstraint=eastwest;fontSize=12;" vertex="1" parent="41">
                    <mxGeometry y="56" width="160" height="30" as="geometry"/>
                </mxCell>
                <mxCell id="44" value="details: richeditor" style="text;strokeColor=#6F0000;fillColor=#a20025;spacingLeft=4;spacingRight=4;overflow=hidden;rotatable=0;points=[[0,0.5],[1,0.5]];portConstraint=eastwest;fontSize=12;fontColor=#ffffff;" vertex="1" parent="41">
                    <mxGeometry y="86" width="160" height="30" as="geometry"/>
                </mxCell>
                <mxCell id="45" value="CaseStudyImage" style="swimlane;fontStyle=0;childLayout=stackLayout;horizontal=1;startSize=26;horizontalStack=0;resizeParent=1;resizeParentMax=0;resizeLast=0;collapsible=1;marginBottom=0;align=center;fontSize=14;" vertex="1" parent="1">
                    <mxGeometry x="300" y="585" width="160" height="116" as="geometry"/>
                </mxCell>
                <mxCell id="46" value="casestudy_id: contents ref" style="text;strokeColor=none;fillColor=none;spacingLeft=4;spacingRight=4;overflow=hidden;rotatable=0;points=[[0,0.5],[1,0.5]];portConstraint=eastwest;fontSize=12;" vertex="1" parent="45">
                    <mxGeometry y="26" width="160" height="30" as="geometry"/>
                </mxCell>
                <mxCell id="47" value="category: textfield" style="text;strokeColor=none;fillColor=none;spacingLeft=4;spacingRight=4;overflow=hidden;rotatable=0;points=[[0,0.5],[1,0.5]];portConstraint=eastwest;fontSize=12;" vertex="1" parent="45">
                    <mxGeometry y="56" width="160" height="30" as="geometry"/>
                </mxCell>
                <mxCell id="48" value="image: image" style="text;strokeColor=none;fillColor=none;spacingLeft=4;spacingRight=4;overflow=hidden;rotatable=0;points=[[0,0.5],[1,0.5]];portConstraint=eastwest;fontSize=12;" vertex="1" parent="45">
                    <mxGeometry y="86" width="160" height="30" as="geometry"/>
                </mxCell>
                <mxCell id="50" value="" style="edgeStyle=entityRelationEdgeStyle;fontSize=12;html=1;endArrow=ERoneToMany;startArrow=ERmandOne;exitX=1;exitY=0.5;exitDx=0;exitDy=0;entryX=0;entryY=0.5;entryDx=0;entryDy=0;" edge="1" parent="1" source="42" target="46">
                    <mxGeometry width="100" height="100" relative="1" as="geometry">
                        <mxPoint x="430" y="420" as="sourcePoint"/>
                        <mxPoint x="530" y="320" as="targetPoint"/>
                    </mxGeometry>
                </mxCell>
                <mxCell id="51" value="Links" style="swimlane;fontStyle=0;childLayout=stackLayout;horizontal=1;startSize=26;horizontalStack=0;resizeParent=1;resizeParentMax=0;resizeLast=0;collapsible=1;marginBottom=0;align=center;fontSize=14;" vertex="1" parent="1">
                    <mxGeometry x="70" y="720" width="160" height="116" as="geometry"/>
                </mxCell>
                <mxCell id="52" value="name: textfield" style="text;strokeColor=none;fillColor=none;spacingLeft=4;spacingRight=4;overflow=hidden;rotatable=0;points=[[0,0.5],[1,0.5]];portConstraint=eastwest;fontSize=12;" vertex="1" parent="51">
                    <mxGeometry y="26" width="160" height="30" as="geometry"/>
                </mxCell>
                <mxCell id="53" value="url: textfield" style="text;strokeColor=none;fillColor=none;spacingLeft=4;spacingRight=4;overflow=hidden;rotatable=0;points=[[0,0.5],[1,0.5]];portConstraint=eastwest;fontSize=12;" vertex="1" parent="51">
                    <mxGeometry y="56" width="160" height="30" as="geometry"/>
                </mxCell>
                <mxCell id="54" value="icon: image" style="text;strokeColor=none;fillColor=none;spacingLeft=4;spacingRight=4;overflow=hidden;rotatable=0;points=[[0,0.5],[1,0.5]];portConstraint=eastwest;fontSize=12;" vertex="1" parent="51">
                    <mxGeometry y="86" width="160" height="30" as="geometry"/>
                </mxCell>
                <mxCell id="57" value="AboutImage" style="swimlane;fontStyle=0;childLayout=stackLayout;horizontal=1;startSize=26;horizontalStack=0;resizeParent=1;resizeParentMax=0;resizeLast=0;collapsible=1;marginBottom=0;align=center;fontSize=14;" vertex="1" parent="1">
                    <mxGeometry x="280" y="440" width="160" height="86" as="geometry"/>
                </mxCell>
                <mxCell id="58" value="tech_name: textfield" style="text;strokeColor=none;fillColor=none;spacingLeft=4;spacingRight=4;overflow=hidden;rotatable=0;points=[[0,0.5],[1,0.5]];portConstraint=eastwest;fontSize=12;" vertex="1" parent="57">
                    <mxGeometry y="26" width="160" height="30" as="geometry"/>
                </mxCell>
                <mxCell id="60" value="image: image" style="text;strokeColor=none;fillColor=none;spacingLeft=4;spacingRight=4;overflow=hidden;rotatable=0;points=[[0,0.5],[1,0.5]];portConstraint=eastwest;fontSize=12;" vertex="1" parent="57">
                    <mxGeometry y="56" width="160" height="30" as="geometry"/>
                </mxCell>
                <mxCell id="61" value="" style="edgeStyle=entityRelationEdgeStyle;fontSize=12;html=1;endArrow=ERoneToMany;startArrow=ERmandOne;exitX=1;exitY=0.5;exitDx=0;exitDy=0;entryX=0;entryY=0.5;entryDx=0;entryDy=0;" edge="1" parent="1" source="28" target="58">
                    <mxGeometry width="100" height="100" relative="1" as="geometry">
                        <mxPoint x="230" y="490" as="sourcePoint"/>
                        <mxPoint x="300" y="490" as="targetPoint"/>
                    </mxGeometry>
                </mxCell>
            </root>
        </mxGraphModel>
    </diagram>
</mxfile>